<svg id="Layer_1" data-name="Layer 1" xmlns="http://www.w3.org/2000/svg" viewBox="0 0 20 20"><defs><style>.cls-1{fill:#dedede;}.cls-2{fill:#f5f5f5;}</style></defs><path class="cls-1" d="M10.48,0A9.53,9.53,0,1,0,20,9.52,9.53,9.53,0,0,0,10.48,0Zm6.66,13.9a.39.39,0,0,1-.38.39H4.19a.39.39,0,0,1-.38-.39V12.77a.38.38,0,0,1,.38-.39H16.76a.38.38,0,0,1,.38.39Zm0-3.81a.39.39,0,0,1-.38.39H4.19a.39.39,0,0,1-.38-.39V9a.38.38,0,0,1,.38-.39H16.76a.38.38,0,0,1,.38.39Zm0-3.81a.39.39,0,0,1-.38.39H4.19a.39.39,0,0,1-.38-.39V5.15a.38.38,0,0,1,.38-.39H16.76a.38.38,0,0,1,.38.39Z" transform="translate(0 0)"/><path class="cls-2" d="M9.52,1a9.53,9.53,0,1,0,9.53,9.53A9.53,9.53,0,0,0,9.52,1Zm6.67,13.9a.38.38,0,0,1-.38.39H3.24a.38.38,0,0,1-.38-.39V13.72a.39.39,0,0,1,.38-.39H15.81a.39.39,0,0,1,.38.39Zm0-3.81a.38.38,0,0,1-.38.39H3.24A.38.38,0,0,1,2.86,11V9.91a.39.39,0,0,1,.38-.39H15.81a.39.39,0,0,1,.38.39Zm0-3.81a.38.38,0,0,1-.38.39H3.24a.38.38,0,0,1-.38-.39V6.1a.39.39,0,0,1,.38-.39H15.81a.39.39,0,0,1,.38.39Z" transform="translate(0 0)"/></svg>